<svg width="12" height="12" viewBox="0 0 12 12" fill="none" xmlns="http://www.w3.org/2000/svg">
<g clip-path="url(#clip0_0_110)">
<path d="M2 1C1.44772 1 1 1.44772 1 2V10C1 10.5523 1.44772 11 2 11H10C10.5523 11 11 10.5523 11 10V2C11 1.44772 10.5523 1 10 1H2ZM2 0H10C11.1046 0 12 0.89543 12 2V10C12 11.1046 11.1046 12 10 12H2C0.89543 12 0 11.1046 0 10V2C0 0.89543 0.89543 0 2 0Z" fill="white"/>
<path d="M6.26225 6.96499C6.7952 6.82015 7.10984 6.27069 6.965 5.73774C6.82016 5.20478 6.27071 4.89015 5.73775 5.03499C5.2048 5.17982 4.89016 5.72928 5.035 6.26223C5.17983 6.79519 5.72929 7.10982 6.26225 6.96499ZM6.5245 7.92999C5.45859 8.21966 4.35967 7.59039 4.07 6.52448C3.78033 5.45857 4.40959 4.35966 5.4755 4.06999C6.54141 3.78031 7.64033 4.40958 7.93 5.47549C8.21967 6.5414 7.59041 7.64032 6.5245 7.92999Z" fill="white"/>
<path d="M9 4C9.55228 4 10 3.55228 10 3C10 2.44772 9.55228 2 9 2C8.44772 2 8 2.44772 8 3C8 3.55228 8.44772 4 9 4Z" fill="white"/>
</g>
<defs>
<clipPath id="clip0_0_110">
<rect width="12" height="12" fill="white"/>
</clipPath>
</defs>
</svg>
